<?xml version="1.0" encoding="UTF-8" standalone="no"?>
<svg width="1092px" height="421px" viewBox="0 0 1092 421" version="1.1" xmlns="http://www.w3.org/2000/svg" xmlns:xlink="http://www.w3.org/1999/xlink">
    <!-- Generator: Sketch 46.2 (44496) - http://www.bohemiancoding.com/sketch -->
    <title>Slice 3</title>
    <desc>Created with Sketch.</desc>
    <defs>
        <rect id="path-1" x="0" y="-2" width="1092" height="1478"></rect>
    </defs>
    <g id="Page-1" stroke="none" stroke-width="1" fill="none" fill-rule="evenodd">
        <g id="Background">
            <use fill="#0E243B" fill-rule="evenodd" xlink:href="#path-1"></use>
            <rect stroke="#979797" stroke-width="1" x="0.5" y="-1.5" width="1091" height="1477"></rect>
        </g>
        <g id="Stars" transform="translate(611.000000, 206.000000)" stroke="#979797" fill="#D8D8D8">
            <circle id="Oval-5" opacity="0.794892724" cx="93.5" cy="200.5" r="1.5"></circle>
            <circle id="Oval-5" opacity="0.794892724" cx="39.5" cy="185.5" r="1.5"></circle>
            <circle id="Oval-5" opacity="0.794892724" cx="93.5" cy="200.5" r="1.5"></circle>
            <circle id="Oval-5" opacity="0.794892724" cx="0.5" cy="210.5" r="1"></circle>
            <circle id="Oval-5" transform="translate(306.500000, 173.500000) scale(-1, -1) translate(-306.500000, -173.500000) " cx="306.5" cy="173.5" r="2.5"></circle>
            <circle id="Oval-5" opacity="0.794892724" transform="translate(304.000000, 109.000000) scale(-1, -1) translate(-304.000000, -109.000000) " cx="304" cy="109" r="2"></circle>
            <circle id="Oval-5" transform="translate(306.500000, 173.500000) scale(-1, -1) translate(-306.500000, -173.500000) " cx="306.5" cy="173.5" r="2.5"></circle>
            <circle id="Oval-5" opacity="0.794892724" transform="translate(235.000000, 90.000000) scale(-1, -1) translate(-235.000000, -90.000000) " cx="235" cy="90" r="2"></circle>
            <circle id="Oval-5" opacity="0.794892724" transform="translate(154.000000, 86.000000) scale(-1, -1) translate(-154.000000, -86.000000) " cx="154" cy="86" r="2"></circle>
            <circle id="Oval-5" transform="translate(306.500000, 173.500000) scale(-1, -1) translate(-306.500000, -173.500000) " cx="306.5" cy="173.5" r="2.5"></circle>
            <circle id="Oval-5" opacity="0.794892724" transform="translate(304.000000, 109.000000) scale(-1, -1) translate(-304.000000, -109.000000) " cx="304" cy="109" r="2"></circle>
            <circle id="Oval-5" opacity="0.794892724" transform="translate(199.000000, 142.000000) scale(-1, -1) translate(-199.000000, -142.000000) " cx="199" cy="142" r="2"></circle>
            <circle id="Oval-5" opacity="0.794892724" transform="translate(259.500000, 135.500000) scale(-1, -1) translate(-259.500000, -135.500000) " cx="259.5" cy="135.5" r="1"></circle>
            <circle id="Oval-5" opacity="0.794892724" transform="translate(156.500000, 105.500000) scale(-1, -1) translate(-156.500000, -105.500000) " cx="156.5" cy="105.5" r="1"></circle>
            <circle id="Oval-5" opacity="0.794892724" transform="translate(184.500000, 121.500000) scale(-1, -1) translate(-184.500000, -121.500000) " cx="184.5" cy="121.5" r="1"></circle>
            <circle id="Oval-5" opacity="0.794892724" cx="93.5" cy="200.5" r="1.5"></circle>
            <circle id="Oval-5" opacity="0.794892724" cx="39.5" cy="185.5" r="1.5"></circle>
            <circle id="Oval-5" opacity="0.794892724" cx="93.5" cy="200.5" r="1.5"></circle>
            <circle id="Oval-5" opacity="0.794892724" cx="0.5" cy="210.5" r="1"></circle>
            <circle id="Oval-5" opacity="0.794892724" transform="translate(199.000000, 142.000000) scale(-1, -1) translate(-199.000000, -142.000000) " cx="199" cy="142" r="2"></circle>
            <circle id="Oval-5" opacity="0.794892724" transform="translate(259.500000, 135.500000) scale(-1, -1) translate(-259.500000, -135.500000) " cx="259.5" cy="135.5" r="1"></circle>
            <circle id="Oval-5" opacity="0.794892724" transform="translate(184.500000, 121.500000) scale(-1, -1) translate(-184.500000, -121.500000) " cx="184.5" cy="121.5" r="1"></circle>
            <circle id="Oval-5" opacity="0.794892724" transform="translate(0.500000, 0.500000) scale(-1, -1) translate(-0.500000, -0.500000) " cx="0.5" cy="0.5" r="1"></circle>
            <circle id="Oval-5" opacity="0.794892724" transform="translate(0.500000, 0.500000) scale(-1, -1) translate(-0.500000, -0.500000) " cx="0.5" cy="0.5" r="1"></circle>
            <circle id="Oval-5" opacity="0.794892724" transform="translate(0.500000, 0.500000) scale(-1, -1) translate(-0.500000, -0.500000) " cx="0.5" cy="0.5" r="1"></circle>
            <circle id="Oval-5" opacity="0.794892724" transform="translate(0.500000, 0.500000) scale(-1, -1) translate(-0.500000, -0.500000) " cx="0.5" cy="0.5" r="1"></circle>
        </g>
        <g id="Stars" transform="translate(712.000000, -57.000000)" stroke="#979797" fill="#D8D8D8">
            <circle id="Oval-5" cx="105" cy="275" r="2"></circle>
            <circle id="Oval-5" opacity="0.313316231" cx="160" cy="244" r="2"></circle>
            <circle id="Oval-5" opacity="0.794892724" cx="102.5" cy="219.5" r="1.5"></circle>
            <circle id="Oval-5" cx="105" cy="275" r="2"></circle>
            <circle id="Oval-5" opacity="0.313316231" cx="160" cy="244" r="2"></circle>
            <circle id="Oval-5" opacity="0.794892724" cx="43.5" cy="203.5" r="1.5"></circle>
            <circle id="Oval-5" cx="105" cy="275" r="2"></circle>
            <circle id="Oval-5" opacity="0.313316231" cx="160" cy="244" r="2"></circle>
            <circle id="Oval-5" opacity="0.313316231" cx="128" cy="279" r="2"></circle>
            <circle id="Oval-5" opacity="0.794892724" cx="102.5" cy="219.5" r="1.5"></circle>
            <circle id="Oval-5" opacity="0.794892724" cx="12.5" cy="248.5" r="1.5"></circle>
            <circle id="Oval-5" opacity="0.794892724" cx="65.5" cy="242.5" r="1"></circle>
            <circle id="Oval-5" opacity="0.794892724" cx="0.5" cy="230.5" r="1"></circle>
            <circle id="Oval-5" transform="translate(336.500000, 189.500000) scale(-1, -1) translate(-336.500000, -189.500000) " cx="336.5" cy="189.5" r="2.5"></circle>
            <circle id="Oval-5" opacity="0.794892724" transform="translate(333.000000, 119.000000) scale(-1, -1) translate(-333.000000, -119.000000) " cx="333" cy="119" r="2"></circle>
            <circle id="Oval-5" transform="translate(336.500000, 189.500000) scale(-1, -1) translate(-336.500000, -189.500000) " cx="336.5" cy="189.5" r="2.5"></circle>
            <circle id="Oval-5" opacity="0.794892724" transform="translate(258.000000, 98.000000) scale(-1, -1) translate(-258.000000, -98.000000) " cx="258" cy="98" r="2"></circle>
            <circle id="Oval-5" opacity="0.794892724" transform="translate(169.000000, 94.000000) scale(-1, -1) translate(-169.000000, -94.000000) " cx="169" cy="94" r="2"></circle>
            <circle id="Oval-5" transform="translate(336.500000, 189.500000) scale(-1, -1) translate(-336.500000, -189.500000) " cx="336.5" cy="189.5" r="2.5"></circle>
            <circle id="Oval-5" opacity="0.794892724" transform="translate(333.000000, 119.000000) scale(-1, -1) translate(-333.000000, -119.000000) " cx="333" cy="119" r="2"></circle>
            <circle id="Oval-5" opacity="0.794892724" transform="translate(218.000000, 155.000000) scale(-1, -1) translate(-218.000000, -155.000000) " cx="218" cy="155" r="2"></circle>
            <circle id="Oval-5" opacity="0.794892724" transform="translate(284.500000, 148.500000) scale(-1, -1) translate(-284.500000, -148.500000) " cx="284.5" cy="148.5" r="1"></circle>
            <circle id="Oval-5" opacity="0.794892724" transform="translate(171.500000, 115.500000) scale(-1, -1) translate(-171.500000, -115.500000) " cx="171.5" cy="115.5" r="1"></circle>
            <circle id="Oval-5" opacity="0.794892724" transform="translate(202.500000, 133.500000) scale(-1, -1) translate(-202.500000, -133.500000) " cx="202.5" cy="133.5" r="1"></circle>
            <circle id="Oval-5" cx="105" cy="275" r="2"></circle>
            <circle id="Oval-5" opacity="0.313316231" cx="160" cy="244" r="2"></circle>
            <circle id="Oval-5" opacity="0.794892724" cx="102.5" cy="219.5" r="1.5"></circle>
            <circle id="Oval-5" cx="105" cy="275" r="2"></circle>
            <circle id="Oval-5" opacity="0.313316231" cx="160" cy="244" r="2"></circle>
            <circle id="Oval-5" opacity="0.794892724" cx="43.5" cy="203.5" r="1.5"></circle>
            <circle id="Oval-5" cx="105" cy="275" r="2"></circle>
            <circle id="Oval-5" opacity="0.313316231" cx="133" cy="419" r="2"></circle>
            <circle id="Oval-5" opacity="0.313316231" cx="128" cy="279" r="2"></circle>
            <circle id="Oval-5" opacity="0.794892724" cx="102.5" cy="219.5" r="1.5"></circle>
            <circle id="Oval-5" opacity="0.794892724" cx="12.5" cy="248.5" r="1.5"></circle>
            <circle id="Oval-5" opacity="0.794892724" cx="65.5" cy="242.5" r="1"></circle>
            <circle id="Oval-5" opacity="0.794892724" cx="0.5" cy="230.5" r="1"></circle>
            <circle id="Oval-5" opacity="0.794892724" transform="translate(218.000000, 155.000000) scale(-1, -1) translate(-218.000000, -155.000000) " cx="218" cy="155" r="2"></circle>
            <circle id="Oval-5" opacity="0.794892724" transform="translate(284.500000, 148.500000) scale(-1, -1) translate(-284.500000, -148.500000) " cx="284.5" cy="148.5" r="1"></circle>
            <circle id="Oval-5" opacity="0.794892724" transform="translate(202.500000, 133.500000) scale(-1, -1) translate(-202.500000, -133.500000) " cx="202.5" cy="133.5" r="1"></circle>
        </g>
        <g id="Stars" transform="translate(572.500000, 231.500000) scale(-1, -1) translate(-572.500000, -231.500000) translate(471.000000, 105.000000)" stroke="#979797" fill="#D8D8D8">
            <circle id="Oval-5" cx="63" cy="165" r="1"></circle>
            <circle id="Oval-5" opacity="0.313316231" cx="95" cy="146" r="1"></circle>
            <circle id="Oval-5" opacity="0.794892724" cx="62" cy="132" r="1"></circle>
            <circle id="Oval-5" cx="63" cy="165" r="1"></circle>
            <circle id="Oval-5" opacity="0.313316231" cx="95" cy="146" r="1"></circle>
            <circle id="Oval-5" opacity="0.794892724" cx="26" cy="123" r="1"></circle>
            <circle id="Oval-5" cx="63" cy="165" r="1"></circle>
            <circle id="Oval-5" opacity="0.313316231" cx="95" cy="146" r="1"></circle>
            <circle id="Oval-5" opacity="0.313316231" cx="77" cy="167" r="1"></circle>
            <circle id="Oval-5" opacity="0.794892724" cx="62" cy="132" r="1"></circle>
            <circle id="Oval-5" opacity="0.794892724" cx="7" cy="150" r="1"></circle>
            <circle id="Oval-5" opacity="0.794892724" cx="38.5" cy="145.5" r="1"></circle>
            <circle id="Oval-5" opacity="0.794892724" cx="0.5" cy="139.5" r="1"></circle>
            <circle id="Oval-5" transform="translate(201.000000, 115.000000) scale(-1, -1) translate(-201.000000, -115.000000) " cx="201" cy="115" r="2"></circle>
            <circle id="Oval-5" opacity="0.794892724" transform="translate(199.000000, 72.000000) scale(-1, -1) translate(-199.000000, -72.000000) " cx="199" cy="72" r="1"></circle>
            <circle id="Oval-5" transform="translate(201.000000, 115.000000) scale(-1, -1) translate(-201.000000, -115.000000) " cx="201" cy="115" r="2"></circle>
            <circle id="Oval-5" opacity="0.794892724" transform="translate(154.000000, 59.000000) scale(-1, -1) translate(-154.000000, -59.000000) " cx="154" cy="59" r="1"></circle>
            <circle id="Oval-5" opacity="0.794892724" transform="translate(101.000000, 57.000000) scale(-1, -1) translate(-101.000000, -57.000000) " cx="101" cy="57" r="1"></circle>
            <circle id="Oval-5" transform="translate(201.000000, 115.000000) scale(-1, -1) translate(-201.000000, -115.000000) " cx="201" cy="115" r="2"></circle>
            <circle id="Oval-5" opacity="0.794892724" transform="translate(199.000000, 72.000000) scale(-1, -1) translate(-199.000000, -72.000000) " cx="199" cy="72" r="1"></circle>
            <circle id="Oval-5" opacity="0.794892724" transform="translate(131.000000, 93.000000) scale(-1, -1) translate(-131.000000, -93.000000) " cx="131" cy="93" r="1"></circle>
            <circle id="Oval-5" opacity="0.794892724" transform="translate(170.500000, 89.500000) scale(-1, -1) translate(-170.500000, -89.500000) " cx="170.5" cy="89.5" r="1"></circle>
            <circle id="Oval-5" opacity="0.794892724" transform="translate(103.500000, 69.500000) scale(-1, -1) translate(-103.500000, -69.500000) " cx="103.5" cy="69.5" r="1"></circle>
            <circle id="Oval-5" opacity="0.794892724" transform="translate(121.500000, 79.500000) scale(-1, -1) translate(-121.500000, -79.500000) " cx="121.5" cy="79.5" r="1"></circle>
            <circle id="Oval-5" cx="63" cy="165" r="1"></circle>
            <circle id="Oval-5" opacity="0.313316231" cx="95" cy="146" r="1"></circle>
            <circle id="Oval-5" opacity="0.794892724" cx="62" cy="132" r="1"></circle>
            <circle id="Oval-5" cx="63" cy="165" r="1"></circle>
            <circle id="Oval-5" opacity="0.313316231" cx="95" cy="146" r="1"></circle>
            <circle id="Oval-5" opacity="0.794892724" cx="26" cy="123" r="1"></circle>
            <circle id="Oval-5" cx="63" cy="165" r="1"></circle>
            <circle id="Oval-5" opacity="0.313316231" cx="79" cy="252" r="1"></circle>
            <circle id="Oval-5" opacity="0.313316231" cx="77" cy="167" r="1"></circle>
            <circle id="Oval-5" opacity="0.794892724" cx="62" cy="132" r="1"></circle>
            <circle id="Oval-5" opacity="0.794892724" cx="7" cy="150" r="1"></circle>
            <circle id="Oval-5" opacity="0.794892724" cx="38.5" cy="145.5" r="1"></circle>
            <circle id="Oval-5" opacity="0.794892724" cx="0.5" cy="139.5" r="1"></circle>
            <circle id="Oval-5" opacity="0.794892724" transform="translate(131.000000, 93.000000) scale(-1, -1) translate(-131.000000, -93.000000) " cx="131" cy="93" r="1"></circle>
            <circle id="Oval-5" opacity="0.794892724" transform="translate(170.500000, 89.500000) scale(-1, -1) translate(-170.500000, -89.500000) " cx="170.5" cy="89.5" r="1"></circle>
            <circle id="Oval-5" opacity="0.794892724" transform="translate(121.500000, 79.500000) scale(-1, -1) translate(-121.500000, -79.500000) " cx="121.5" cy="79.5" r="1"></circle>
            <circle id="Oval-5" opacity="0.794892724" transform="translate(0.500000, 0.500000) scale(-1, -1) translate(-0.500000, -0.500000) " cx="0.5" cy="0.5" r="1"></circle>
            <circle id="Oval-5" opacity="0.794892724" transform="translate(0.500000, 0.500000) scale(-1, -1) translate(-0.500000, -0.500000) " cx="0.5" cy="0.5" r="1"></circle>
            <circle id="Oval-5" opacity="0.794892724" transform="translate(0.500000, 0.500000) scale(-1, -1) translate(-0.500000, -0.500000) " cx="0.5" cy="0.5" r="1"></circle>
            <circle id="Oval-5" opacity="0.794892724" transform="translate(0.500000, 0.500000) scale(-1, -1) translate(-0.500000, -0.500000) " cx="0.5" cy="0.5" r="1"></circle>
        </g>
        <g id="Stars" transform="translate(315.500000, 154.000000) scale(-1, 1) translate(-315.500000, -154.000000) translate(176.000000, -20.000000)" stroke="#979797" fill="#D8D8D8">
            <circle id="Oval-5" cx="86.5" cy="227.5" r="1.5"></circle>
            <circle id="Oval-5" opacity="0.313316231" cx="130.5" cy="200.5" r="1.5"></circle>
            <circle id="Oval-5" opacity="0.794892724" cx="85.5" cy="181.5" r="1.5"></circle>
            <circle id="Oval-5" cx="86.5" cy="227.5" r="1.5"></circle>
            <circle id="Oval-5" opacity="0.313316231" cx="130.5" cy="200.5" r="1.5"></circle>
            <circle id="Oval-5" opacity="0.794892724" cx="35.5" cy="169.5" r="1.5"></circle>
            <circle id="Oval-5" cx="86.5" cy="227.5" r="1.5"></circle>
            <circle id="Oval-5" opacity="0.313316231" cx="130.5" cy="200.5" r="1.5"></circle>
            <circle id="Oval-5" opacity="0.313316231" cx="105.5" cy="229.5" r="1.5"></circle>
            <circle id="Oval-5" opacity="0.794892724" cx="85.5" cy="181.5" r="1.5"></circle>
            <circle id="Oval-5" opacity="0.794892724" cx="9.5" cy="206.5" r="1.5"></circle>
            <circle id="Oval-5" opacity="0.794892724" cx="52.5" cy="199.5" r="1"></circle>
            <circle id="Oval-5" opacity="0.794892724" cx="0.5" cy="191.5" r="1"></circle>
            <ellipse id="Oval-5" transform="translate(276.500000, 158.000000) scale(-1, -1) translate(-276.500000, -158.000000) " cx="276.5" cy="158" rx="2.5" ry="3"></ellipse>
            <circle id="Oval-5" opacity="0.794892724" transform="translate(273.500000, 99.500000) scale(-1, -1) translate(-273.500000, -99.500000) " cx="273.5" cy="99.5" r="1.5"></circle>
            <ellipse id="Oval-5" transform="translate(276.500000, 158.000000) scale(-1, -1) translate(-276.500000, -158.000000) " cx="276.5" cy="158" rx="2.5" ry="3"></ellipse>
            <circle id="Oval-5" opacity="0.794892724" transform="translate(211.500000, 81.500000) scale(-1, -1) translate(-211.500000, -81.500000) " cx="211.5" cy="81.5" r="1.5"></circle>
            <circle id="Oval-5" opacity="0.794892724" transform="translate(138.500000, 78.500000) scale(-1, -1) translate(-138.500000, -78.500000) " cx="138.5" cy="78.5" r="1.5"></circle>
            <ellipse id="Oval-5" transform="translate(276.500000, 158.000000) scale(-1, -1) translate(-276.500000, -158.000000) " cx="276.5" cy="158" rx="2.5" ry="3"></ellipse>
            <circle id="Oval-5" opacity="0.794892724" transform="translate(273.500000, 99.500000) scale(-1, -1) translate(-273.500000, -99.500000) " cx="273.5" cy="99.5" r="1.5"></circle>
            <circle id="Oval-5" opacity="0.794892724" transform="translate(180.500000, 128.500000) scale(-1, -1) translate(-180.500000, -128.500000) " cx="180.5" cy="128.5" r="1.5"></circle>
            <circle id="Oval-5" opacity="0.794892724" transform="translate(234.500000, 122.500000) scale(-1, -1) translate(-234.500000, -122.500000) " cx="234.5" cy="122.5" r="1"></circle>
            <circle id="Oval-5" opacity="0.794892724" transform="translate(142.500000, 95.500000) scale(-1, -1) translate(-142.500000, -95.500000) " cx="142.5" cy="95.5" r="1"></circle>
            <circle id="Oval-5" opacity="0.794892724" transform="translate(166.500000, 109.500000) scale(-1, -1) translate(-166.500000, -109.500000) " cx="166.5" cy="109.5" r="1"></circle>
            <circle id="Oval-5" cx="86.5" cy="227.5" r="1.5"></circle>
            <circle id="Oval-5" opacity="0.313316231" cx="130.5" cy="200.5" r="1.5"></circle>
            <circle id="Oval-5" opacity="0.794892724" cx="85.5" cy="181.5" r="1.5"></circle>
            <circle id="Oval-5" cx="86.5" cy="227.5" r="1.5"></circle>
            <circle id="Oval-5" opacity="0.313316231" cx="130.5" cy="200.5" r="1.5"></circle>
            <circle id="Oval-5" opacity="0.794892724" cx="35.5" cy="169.5" r="1.5"></circle>
            <circle id="Oval-5" cx="86.5" cy="227.5" r="1.5"></circle>
            <circle id="Oval-5" opacity="0.313316231" cx="108.5" cy="346.5" r="1.5"></circle>
            <circle id="Oval-5" opacity="0.313316231" cx="105.5" cy="229.5" r="1.5"></circle>
            <circle id="Oval-5" opacity="0.794892724" cx="85.5" cy="181.5" r="1.5"></circle>
            <circle id="Oval-5" opacity="0.794892724" cx="9.5" cy="206.5" r="1.5"></circle>
            <circle id="Oval-5" opacity="0.794892724" cx="52.5" cy="199.5" r="1"></circle>
            <circle id="Oval-5" opacity="0.794892724" cx="0.5" cy="191.5" r="1"></circle>
            <circle id="Oval-5" opacity="0.794892724" transform="translate(180.500000, 128.500000) scale(-1, -1) translate(-180.500000, -128.500000) " cx="180.5" cy="128.5" r="1.5"></circle>
            <circle id="Oval-5" opacity="0.794892724" transform="translate(234.500000, 122.500000) scale(-1, -1) translate(-234.500000, -122.500000) " cx="234.5" cy="122.5" r="1"></circle>
            <circle id="Oval-5" opacity="0.794892724" transform="translate(166.500000, 109.500000) scale(-1, -1) translate(-166.500000, -109.500000) " cx="166.5" cy="109.5" r="1"></circle>
        </g>
        <g id="Stars" transform="translate(176.000000, 210.500000) scale(1, -1) translate(-176.000000, -210.500000) translate(5.000000, -2.000000)" stroke="#979797" fill="#D8D8D8">
            <circle id="Oval-5" cx="106.5" cy="277.5" r="2.5"></circle>
            <circle id="Oval-5" opacity="0.313316231" cx="161.5" cy="247.5" r="2.5"></circle>
            <circle id="Oval-5" opacity="0.794892724" cx="103.5" cy="221.5" r="1.5"></circle>
            <circle id="Oval-5" cx="106.5" cy="277.5" r="2.5"></circle>
            <circle id="Oval-5" opacity="0.313316231" cx="161.5" cy="247.5" r="2.5"></circle>
            <circle id="Oval-5" opacity="0.794892724" cx="43.5" cy="204.5" r="1.5"></circle>
            <circle id="Oval-5" cx="106.5" cy="277.5" r="2.5"></circle>
            <circle id="Oval-5" opacity="0.313316231" cx="161.5" cy="247.5" r="2.5"></circle>
            <circle id="Oval-5" opacity="0.313316231" cx="129.5" cy="282.5" r="2.5"></circle>
            <circle id="Oval-5" opacity="0.794892724" cx="103.5" cy="221.5" r="1.5"></circle>
            <circle id="Oval-5" opacity="0.794892724" cx="12.5" cy="250.5" r="1.5"></circle>
            <circle id="Oval-5" opacity="0.794892724" cx="65.5" cy="245.5" r="1"></circle>
            <circle id="Oval-5" opacity="0.794892724" cx="0.5" cy="232.5" r="1"></circle>
            <circle id="Oval-5" transform="translate(339.500000, 191.500000) scale(-1, -1) translate(-339.500000, -191.500000) " cx="339.5" cy="191.5" r="2.5"></circle>
            <circle id="Oval-5" opacity="0.794892724" transform="translate(336.500000, 120.500000) scale(-1, -1) translate(-336.500000, -120.500000) " cx="336.5" cy="120.5" r="2.5"></circle>
            <circle id="Oval-5" transform="translate(339.500000, 191.500000) scale(-1, -1) translate(-339.500000, -191.500000) " cx="339.5" cy="191.5" r="2.5"></circle>
            <circle id="Oval-5" opacity="0.794892724" transform="translate(260.500000, 99.500000) scale(-1, -1) translate(-260.500000, -99.500000) " cx="260.5" cy="99.5" r="2.5"></circle>
            <circle id="Oval-5" opacity="0.794892724" transform="translate(170.500000, 95.500000) scale(-1, -1) translate(-170.500000, -95.500000) " cx="170.5" cy="95.5" r="2.5"></circle>
            <circle id="Oval-5" transform="translate(339.500000, 191.500000) scale(-1, -1) translate(-339.500000, -191.500000) " cx="339.5" cy="191.5" r="2.5"></circle>
            <circle id="Oval-5" opacity="0.794892724" transform="translate(336.500000, 120.500000) scale(-1, -1) translate(-336.500000, -120.500000) " cx="336.5" cy="120.5" r="2.5"></circle>
            <circle id="Oval-5" opacity="0.794892724" transform="translate(220.500000, 157.500000) scale(-1, -1) translate(-220.500000, -157.500000) " cx="220.5" cy="157.5" r="2.5"></circle>
            <circle id="Oval-5" opacity="0.794892724" transform="translate(287.500000, 150.500000) scale(-1, -1) translate(-287.500000, -150.500000) " cx="287.5" cy="150.5" r="1"></circle>
            <circle id="Oval-5" opacity="0.794892724" transform="translate(173.500000, 116.500000) scale(-1, -1) translate(-173.500000, -116.500000) " cx="173.5" cy="116.5" r="1"></circle>
            <circle id="Oval-5" opacity="0.794892724" transform="translate(204.500000, 134.500000) scale(-1, -1) translate(-204.500000, -134.500000) " cx="204.5" cy="134.5" r="1"></circle>
            <circle id="Oval-5" cx="106.5" cy="277.5" r="2.5"></circle>
            <circle id="Oval-5" opacity="0.313316231" cx="161.5" cy="247.5" r="2.5"></circle>
            <circle id="Oval-5" opacity="0.794892724" cx="103.5" cy="221.5" r="1.5"></circle>
            <circle id="Oval-5" cx="106.5" cy="277.5" r="2.5"></circle>
            <circle id="Oval-5" opacity="0.313316231" cx="161.5" cy="247.5" r="2.5"></circle>
            <circle id="Oval-5" opacity="0.794892724" cx="43.5" cy="204.5" r="1.5"></circle>
            <circle id="Oval-5" cx="106.5" cy="277.5" r="2.5"></circle>
            <circle id="Oval-5" opacity="0.313316231" cx="134.5" cy="422.5" r="2.5"></circle>
            <circle id="Oval-5" opacity="0.313316231" cx="129.5" cy="282.5" r="2.5"></circle>
            <circle id="Oval-5" opacity="0.794892724" cx="103.5" cy="221.5" r="1.5"></circle>
            <circle id="Oval-5" opacity="0.794892724" cx="12.5" cy="250.5" r="1.5"></circle>
            <circle id="Oval-5" opacity="0.794892724" cx="65.5" cy="245.5" r="1"></circle>
            <circle id="Oval-5" opacity="0.794892724" cx="0.5" cy="232.5" r="1"></circle>
            <circle id="Oval-5" opacity="0.794892724" transform="translate(220.500000, 157.500000) scale(-1, -1) translate(-220.500000, -157.500000) " cx="220.5" cy="157.5" r="2.5"></circle>
            <circle id="Oval-5" opacity="0.794892724" transform="translate(287.500000, 150.500000) scale(-1, -1) translate(-287.500000, -150.500000) " cx="287.5" cy="150.5" r="1"></circle>
            <circle id="Oval-5" opacity="0.794892724" transform="translate(204.500000, 134.500000) scale(-1, -1) translate(-204.500000, -134.500000) " cx="204.5" cy="134.5" r="1"></circle>
        </g>
        <g id="Stars" transform="translate(348.000000, 439.000000) scale(1, -1) translate(-348.000000, -439.000000) translate(241.000000, 306.000000)" stroke="#979797" fill="#D8D8D8">
            <circle id="Oval-5" cx="66.5" cy="173.5" r="1.5"></circle>
            <circle id="Oval-5" opacity="0.313316231" cx="100.5" cy="154.5" r="1.5"></circle>
            <circle id="Oval-5" cx="66.5" cy="173.5" r="1.5"></circle>
            <circle id="Oval-5" opacity="0.313316231" cx="100.5" cy="154.5" r="1.5"></circle>
            <circle id="Oval-5" cx="66.5" cy="173.5" r="1.5"></circle>
            <circle id="Oval-5" opacity="0.313316231" cx="100.5" cy="154.5" r="1.5"></circle>
            <circle id="Oval-5" opacity="0.313316231" cx="80.5" cy="176.5" r="1.5"></circle>
            <circle id="Oval-5" opacity="0.794892724" cx="8" cy="157" r="1"></circle>
            <circle id="Oval-5" opacity="0.794892724" cx="41.5" cy="153.5" r="1"></circle>
            <circle id="Oval-5" cx="66.5" cy="173.5" r="1.5"></circle>
            <circle id="Oval-5" opacity="0.313316231" cx="100.5" cy="154.5" r="1.5"></circle>
            <circle id="Oval-5" cx="66.5" cy="173.5" r="1.5"></circle>
            <circle id="Oval-5" opacity="0.313316231" cx="100.5" cy="154.5" r="1.5"></circle>
            <circle id="Oval-5" cx="66.5" cy="173.5" r="1.5"></circle>
            <circle id="Oval-5" opacity="0.313316231" cx="84.5" cy="264.5" r="1.5"></circle>
            <circle id="Oval-5" opacity="0.313316231" cx="80.5" cy="176.5" r="1.5"></circle>
            <circle id="Oval-5" opacity="0.794892724" cx="8" cy="157" r="1"></circle>
            <circle id="Oval-5" opacity="0.794892724" cx="41.5" cy="153.5" r="1"></circle>
        </g>
        <g id="Stars" transform="translate(680.500000, 87.500000) scale(1, -1) translate(-680.500000, -87.500000) translate(594.000000, -20.000000)" stroke="#979797" fill="#D8D8D8">
            <circle id="Oval-5" cx="54" cy="140" r="1"></circle>
            <circle id="Oval-5" opacity="0.313316231" cx="81" cy="125" r="1"></circle>
            <circle id="Oval-5" opacity="0.794892724" cx="52.5" cy="111.5" r="1"></circle>
            <circle id="Oval-5" cx="54" cy="140" r="1"></circle>
            <circle id="Oval-5" opacity="0.313316231" cx="81" cy="125" r="1"></circle>
            <circle id="Oval-5" opacity="0.794892724" cx="21.5" cy="103.5" r="1"></circle>
            <circle id="Oval-5" cx="54" cy="140" r="1"></circle>
            <circle id="Oval-5" opacity="0.313316231" cx="81" cy="125" r="1"></circle>
            <circle id="Oval-5" opacity="0.313316231" cx="65" cy="142" r="1"></circle>
            <circle id="Oval-5" opacity="0.794892724" cx="52.5" cy="111.5" r="1"></circle>
            <circle id="Oval-5" opacity="0.794892724" cx="6.5" cy="126.5" r="1"></circle>
            <circle id="Oval-5" opacity="0.794892724" cx="33.25" cy="124.25" r="1"></circle>
            <circle id="Oval-5" opacity="0.794892724" cx="0.25" cy="117.25" r="1"></circle>
            <circle id="Oval-5" transform="translate(172.000000, 97.000000) scale(-1, -1) translate(-172.000000, -97.000000) " cx="172" cy="97" r="1"></circle>
            <circle id="Oval-5" opacity="0.794892724" transform="translate(170.000000, 61.000000) scale(-1, -1) translate(-170.000000, -61.000000) " cx="170" cy="61" r="1"></circle>
            <circle id="Oval-5" transform="translate(172.000000, 97.000000) scale(-1, -1) translate(-172.000000, -97.000000) " cx="172" cy="97" r="1"></circle>
            <circle id="Oval-5" opacity="0.794892724" transform="translate(131.000000, 51.000000) scale(-1, -1) translate(-131.000000, -51.000000) " cx="131" cy="51" r="1"></circle>
            <circle id="Oval-5" opacity="0.794892724" transform="translate(86.000000, 48.000000) scale(-1, -1) translate(-86.000000, -48.000000) " cx="86" cy="48" r="1"></circle>
            <circle id="Oval-5" transform="translate(172.000000, 97.000000) scale(-1, -1) translate(-172.000000, -97.000000) " cx="172" cy="97" r="1"></circle>
            <circle id="Oval-5" opacity="0.794892724" transform="translate(170.000000, 61.000000) scale(-1, -1) translate(-170.000000, -61.000000) " cx="170" cy="61" r="1"></circle>
            <circle id="Oval-5" opacity="0.794892724" transform="translate(111.000000, 79.000000) scale(-1, -1) translate(-111.000000, -79.000000) " cx="111" cy="79" r="1"></circle>
            <circle id="Oval-5" opacity="0.794892724" transform="translate(145.500000, 76.500000) scale(-1, -1) translate(-145.500000, -76.500000) " cx="145.25" cy="76.25" r="1"></circle>
            <circle id="Oval-5" opacity="0.794892724" transform="translate(87.500000, 58.500000) scale(-1, -1) translate(-87.500000, -58.500000) " cx="87.25" cy="58.25" r="1"></circle>
            <circle id="Oval-5" opacity="0.794892724" transform="translate(103.500000, 67.500000) scale(-1, -1) translate(-103.500000, -67.500000) " cx="103.25" cy="67.25" r="1"></circle>
            <circle id="Oval-5" cx="54" cy="140" r="1"></circle>
            <circle id="Oval-5" opacity="0.313316231" cx="81" cy="125" r="1"></circle>
            <circle id="Oval-5" opacity="0.794892724" cx="52.5" cy="111.5" r="1"></circle>
            <circle id="Oval-5" cx="54" cy="140" r="1"></circle>
            <circle id="Oval-5" opacity="0.313316231" cx="81" cy="125" r="1"></circle>
            <circle id="Oval-5" opacity="0.794892724" cx="21.5" cy="103.5" r="1"></circle>
            <circle id="Oval-5" cx="54" cy="140" r="1"></circle>
            <circle id="Oval-5" opacity="0.313316231" cx="65" cy="142" r="1"></circle>
            <circle id="Oval-5" opacity="0.794892724" cx="52.5" cy="111.5" r="1"></circle>
            <circle id="Oval-5" opacity="0.794892724" cx="6.5" cy="126.5" r="1"></circle>
            <circle id="Oval-5" opacity="0.794892724" cx="33.25" cy="124.25" r="1"></circle>
            <circle id="Oval-5" opacity="0.794892724" cx="0.25" cy="117.25" r="1"></circle>
            <circle id="Oval-5" opacity="0.794892724" transform="translate(111.000000, 79.000000) scale(-1, -1) translate(-111.000000, -79.000000) " cx="111" cy="79" r="1"></circle>
            <circle id="Oval-5" opacity="0.794892724" transform="translate(145.500000, 76.500000) scale(-1, -1) translate(-145.500000, -76.500000) " cx="145.25" cy="76.25" r="1"></circle>
            <circle id="Oval-5" opacity="0.794892724" transform="translate(103.500000, 67.500000) scale(-1, -1) translate(-103.500000, -67.500000) " cx="103.25" cy="67.25" r="1"></circle>
            <circle id="Oval-5" opacity="0.794892724" transform="translate(0.500000, 0.500000) scale(-1, -1) translate(-0.500000, -0.500000) " cx="0.25" cy="0.25" r="1"></circle>
            <circle id="Oval-5" opacity="0.794892724" transform="translate(0.500000, 0.500000) scale(-1, -1) translate(-0.500000, -0.500000) " cx="0.25" cy="0.25" r="1"></circle>
            <circle id="Oval-5" opacity="0.794892724" transform="translate(0.500000, 0.500000) scale(-1, -1) translate(-0.500000, -0.500000) " cx="0.25" cy="0.25" r="1"></circle>
            <circle id="Oval-5" opacity="0.794892724" transform="translate(0.500000, 0.500000) scale(-1, -1) translate(-0.500000, -0.500000) " cx="0.25" cy="0.25" r="1"></circle>
        </g>
    </g>
</svg>