<?xml version="1.0" encoding="UTF-8" standalone="no"?>
<svg width="257px" height="181px" viewBox="0 0 257 181" version="1.1" xmlns="http://www.w3.org/2000/svg" xmlns:xlink="http://www.w3.org/1999/xlink">
    <!-- Generator: Sketch 46.2 (44496) - http://www.bohemiancoding.com/sketch -->
    <title>Cat</title>
    <desc>Created with Sketch.</desc>
    <defs>
        <linearGradient x1="50%" y1="0%" x2="50%" y2="100%" id="linearGradient-1">
            <stop stop-color="#F9C871" stop-opacity="0.569999993" offset="0%"></stop>
            <stop stop-color="#F0973D" stop-opacity="0.569999993" offset="100%"></stop>
        </linearGradient>
        <polygon id="path-2" points="148 45 148 49 133 49"></polygon>
        <polygon id="path-3" points="125 45 125 49 110 49"></polygon>
    </defs>
    <g id="Page-1" stroke="none" stroke-width="1" fill="none" fill-rule="evenodd">
        <g id="Cat">
            <path d="M82.8295238,36.448571 C86.9126648,15.6853337 105.583874,0 128,0 C150.416126,0 169.087335,15.6853337 173.170476,36.448571 C173.701474,37.5186196 174,38.7244475 174,40 L174,115 C174,119.418278 170.418278,123 166,123 L90,123 C85.581722,123 82,119.418278 82,115 L82,40 C82,38.7244475 82.2985262,37.5186196 82.8295238,36.448571 Z" id="Combined-Shape" fill="url(#linearGradient-1)"></path>
            <path d="M154.865708,55.5325451 C154.9539,56.0082571 155,56.4987449 155,57 L155,106 C155,110.418278 151.418278,114 147,114 L110,114 C105.581722,114 102,110.418278 102,106 L102,57 L102,57 C102,56.4987449 102.0461,56.0082571 102.134292,55.5325451 C102.045484,54.6997429 102,53.8548824 102,53 C102,39.1928813 113.864454,28 128.5,28 C143.135546,28 155,39.1928813 155,53 C155,53.8548824 154.954516,54.6997429 154.865708,55.5325451 Z" id="Combined-Shape" fill="#F0F9FB"></path>
            <path d="M82.5,152.5 L68.5,168.5" id="Line-2" stroke="#5476DE" stroke-width="6" stroke-linecap="square"></path>
            <path d="M185.5,152.5 L171.5,168.5" id="Line-2" stroke="#5476DE" stroke-width="6" stroke-linecap="square" transform="translate(178.500000, 160.500000) scale(-1, 1) translate(-178.500000, -160.500000) "></path>
            <rect id="Rectangle-5" fill="#F0F9FB" x="122" y="68" width="13" height="16" rx="6.5"></rect>
            <polygon id="Triangle" fill="#F0F9FB" transform="translate(152.074272, 33.024947) scale(-1, 1) rotate(-41.000000) translate(-152.074272, -33.024947) " points="152.074272 24.024947 161.574272 42.024947 142.574272 42.024947"></polygon>
            <polygon id="Triangle" fill="#F0F9FB" transform="translate(104.074272, 33.024947) rotate(-41.000000) translate(-104.074272, -33.024947) " points="104.074272 24.024947 113.574272 42.024947 94.5742723 42.024947"></polygon>
            <g id="Rectangle-4">
                <use fill="#D0E433" fill-rule="evenodd" xlink:href="#path-2"></use>
                <path stroke="#979797" stroke-width="1" d="M147.5,45.6508058 L136.815522,48.5 L147.5,48.5 L147.5,45.6508058 Z"></path>
            </g>
            <g id="Rectangle-4" transform="translate(117.500000, 47.000000) scale(-1, 1) translate(-117.500000, -47.000000) ">
                <use fill="#D0E433" fill-rule="evenodd" xlink:href="#path-3"></use>
                <path stroke="#979797" stroke-width="1" d="M124.5,45.6508058 L113.815522,48.5 L124.5,48.5 L124.5,45.6508058 Z"></path>
            </g>
            <path d="M102.104828,66.4239953 C104.899204,67.4716034 120.378747,74.6607168 127.400425,74.4126138 C131.41151,74.2708866 137.96742,73.6894819 142.953681,71.8265125 C147.729614,70.0421262 150.94801,66.9551437 154.340208,67.598079 C154.765449,67.6786764 154.866575,68.3395944 154.896353,68.7713804 C155.29361,74.5316064 154.896353,80.7085887 154.340208,83.0551522 C153.273129,87.5575205 143.156465,85.3842341 133.208267,85.0716663 C122.91067,84.7481206 111.338672,88.1185326 102.366083,83.0551522 C101.840373,82.7584855 102.195364,83.4567807 102.104828,83.0551522 C101.888266,82.0944613 101.990864,79.8078661 102.104828,78.4259497 C102.348074,75.4763806 102.104828,71.8532512 102.104828,68.7713804 L102.104828,66.4239953 Z" id="Path-9" fill="#DD7B7B"></path>
            <path d="M102.211688,66.1421612 C114.644985,72.2102997 123.973237,75.1220415 130.196444,74.8773868 C138.486425,74.5514804 146.781579,71.6397385 155.081904,66.1421612" id="Path-8" stroke="#20DCCB" stroke-width="3" stroke-linecap="round"></path>
            <ellipse id="Oval-11" fill="#CE52B3" cx="128" cy="123" rx="76" ry="42"></ellipse>
            <polygon id="Rectangle-8" fill="#525252" points="105.059918 84 152.940082 84 162 97 96 97"></polygon>
            <rect id="Rectangle-9" fill="#5476DE" x="52" y="118" width="152" height="9" rx="4.5"></rect>
            <path d="M136.133636,82.8228462 C136.133636,85.400359 133.582955,90.1844428 136.133636,90.5553846 L137.161558,91.5833067 C139.573445,91.9340638 140.289092,90.5783249 140.88733,90.5553846 C142.745738,90.4841213 139.614738,89.7590863 140.250743,88.0378412 C140.471961,87.439149 140.314717,87.6272854 142.297593,86.8178684 C143.86871,86.1765325 144.302943,91.3387308 144.98764,89.7860196 L147.652039,90.3346651 C148.48526,88.4451401 146.633983,86.6950365 148.278448,85.4459183 C149.658122,84.3979329 149.929652,86.7475761 151.543008,87.3791265 C152.420133,87.7224785 154.12885,87.7417238 154.312511,86.8178684 C156.430507,76.1638913 139.192901,73.5606635 136.300752,82.0892167 L136.133636,82.8228462 Z" id="Path-13" fill="#F0F9FB"></path>
            <path d="M103.133636,81.8228462 C103.133636,84.400359 100.582955,89.1844428 103.133636,89.5553846 L104.161558,90.5833067 C106.573445,90.9340638 107.289092,89.5783249 107.88733,89.5553846 C109.745738,89.4841213 106.614738,88.7590863 107.250743,87.0378412 C107.471961,86.439149 107.314717,86.6272854 109.297593,85.8178684 C110.86871,85.1765325 111.302943,90.3387308 111.98764,88.7860196 L114.652039,89.3346651 C115.48526,87.4451401 113.633983,85.6950365 115.278448,84.4459183 C116.658122,83.3979329 116.929652,85.7475761 118.543008,86.3791265 C119.420133,86.7224785 121.12885,86.7417238 121.312511,85.8178684 C123.430507,75.1638913 106.192901,72.5606635 103.300752,81.0892167 L103.133636,81.8228462 Z" id="Path-13" fill="#F0F9FB" transform="translate(111.746145, 83.320618) scale(-1, 1) translate(-111.746145, -83.320618) "></path>
            <path d="M182.085164,95.2597913 C190.27224,90.5513485 204.705771,79.9650423 208.124326,76.2951529 C210.346655,73.9094373 211.118451,75.9124302 212.946899,77.4448394 C221.877392,84.9294245 230.540758,93.5240808 239.970325,100.744216 C244.267822,104.034773 249.449745,105.987999 254.002061,108.91591 C254.808273,109.434441 256.860658,110.708621 255.956075,111.025765 C252.17345,112.351945 226.441144,100.224134 222.473157,99.8049459 C208.075878,98.2839831 215.493048,99.0550405 202.626287,95.2597913 C196.341387,93.4059631 191.152512,98.3017962 184.544664,97.1918274 L182.085164,95.2597913 Z" id="Path-16" fill="#CE52B3"></path>
            <path d="M0.903326966,97.0674249 C9.09040331,92.3589821 23.5239338,81.7726759 26.9424889,78.1027866 C29.1648175,75.7170709 29.9366142,77.7200639 31.7650616,79.252473 C40.6955551,86.7370581 49.3589215,95.3317144 58.7884876,102.55185 C63.0859853,105.842406 68.2679084,107.795632 72.8202245,110.723544 C73.626436,111.242074 75.6788212,112.516254 74.7742383,112.833399 C70.991613,114.159578 45.2593066,102.031767 41.2913198,101.61258 C26.8940411,100.091617 34.3112114,100.862674 21.4444504,97.0674249 C15.1595497,95.2135967 9.97067504,100.10943 3.36282692,98.999461 L0.903326966,97.0674249 Z" id="Path-16" fill="#CE52B3" transform="translate(37.951663, 94.967342) scale(-1, 1) translate(-37.951663, -94.967342) "></path>
            <rect id="Rectangle-10" fill="#5476DE" x="59" y="166" width="18" height="15" rx="7.5"></rect>
            <rect id="Rectangle-10" fill="#5476DE" x="175" y="166" width="18" height="15" rx="7.5"></rect>
        </g>
    </g>
</svg>