<?xml version="1.0" encoding="UTF-8" standalone="no"?>
<svg width="102px" height="122px" viewBox="0 0 102 122" version="1.1" xmlns="http://www.w3.org/2000/svg" xmlns:xlink="http://www.w3.org/1999/xlink">
    <!-- Generator: Sketch 46.2 (44496) - http://www.bohemiancoding.com/sketch -->
    <title>Cat</title>
    <desc>Created with Sketch.</desc>
    <defs>
        <linearGradient x1="50%" y1="0%" x2="50%" y2="100%" id="linearGradient-1">
            <stop stop-color="#F9C871" stop-opacity="0.569999993" offset="0%"></stop>
            <stop stop-color="#F0973D" stop-opacity="0.569999993" offset="100%"></stop>
        </linearGradient>
        <linearGradient x1="50%" y1="0%" x2="50%" y2="61.0889668%" id="linearGradient-2">
            <stop stop-color="#D1A6CA" offset="0%"></stop>
            <stop stop-color="#CE52B3" offset="100%"></stop>
        </linearGradient>
        <linearGradient x1="50%" y1="0%" x2="50%" y2="100%" id="linearGradient-3">
            <stop stop-color="#4DEEDC" offset="0%"></stop>
            <stop stop-color="#57B6A8" offset="100%"></stop>
        </linearGradient>
    </defs>
    <g id="Page-1" stroke="none" stroke-width="1" fill="none" fill-rule="evenodd">
        <g id="Cat">
            <path d="M19.0422962,28.7658224 C19.891671,12.7390015 33.4270909,0 50,0 C66.5729091,0 80.108329,12.7390015 80.9577038,28.7658224 C80.9856697,29.0379034 81,29.3140262 81,29.5934959 L81,75 L81,75 C81,79.418278 77.418278,83 73,83 L27,83 L27,83 C22.581722,83 19,79.418278 19,75 L19,29.5934959 C19,29.3140262 19.0143303,29.0379034 19.0422962,28.7658224 Z" id="Combined-Shape" fill="url(#linearGradient-1)"></path>
            <path d="M68.6996099,39.6852429 C68.8952964,40.3780315 69,41.1089955 69,41.8644144 L69,70 C69,74.418278 65.418278,78 61,78 L41,78 C36.581722,78 33,74.418278 33,70 L33,41.8644144 C33,41.1089955 33.1047036,40.3780315 33.3003901,39.6852429 C33.1031097,38.6786436 33,37.6409028 33,36.5804504 C33,31.6750523 33.4343706,26.0321942 37.3767669,24.1382243 C37.5715679,24.0446398 35.4298932,24.6972271 39.2451,23.2064557 C43.0603069,21.7156843 46.9411132,22.0270263 51.4236902,22.0270263 C54.8729923,22.0270263 59.8484598,22.644281 62.4000438,23.6183024 C62.6631259,23.7187293 62.5959391,24.0355371 62.8103747,24.1382243 C67.4881504,26.37828 69,30.7936135 69,36.5804504 C69,37.6409028 68.8968903,38.6786436 68.6996099,39.6852429 Z" id="Combined-Shape" fill="#F0F9FB"></path>
            <path d="M19.6666667,102.323529 L10.3333333,112.676471" id="Line-2" stroke="#5476DE" stroke-width="6" stroke-linecap="square"></path>
            <path d="M88.6666667,102.323529 L79.3333333,112.676471" id="Line-2" stroke="#5476DE" stroke-width="6" stroke-linecap="square" transform="translate(84.000000, 107.500000) scale(-1, 1) translate(-84.000000, -107.500000) "></path>
            <polygon id="Triangle" fill="#F0F9FB" transform="translate(67.500000, 23.500000) scale(-1, 1) rotate(-41.000000) translate(-67.500000, -23.500000) " points="67.5 17 74 30 61 30"></polygon>
            <polygon id="Triangle" fill="#F0F9FB" transform="translate(34.500000, 23.500000) rotate(-41.000000) translate(-34.500000, -23.500000) " points="34.5 17 41 30 28 30"></polygon>
            <polygon id="Rectangle-4" fill="#D0E433" points="65 31 65 37 55 37"></polygon>
            <polygon id="Rectangle-4" fill="#D0E433" transform="translate(43.000000, 34.000000) scale(-1, 1) translate(-43.000000, -34.000000) " points="48 31 48 37 45.1324039 37 38 37"></polygon>
            <ellipse id="Oval-13" fill="#7D7D7D" cx="61" cy="35.5" rx="1" ry="1.5"></ellipse>
            <ellipse id="Oval-13" fill="#7D7D7D" cx="42" cy="35.5" rx="1" ry="1.5"></ellipse>
            <path d="M33.0860019,44 C34.9812398,44.7540783 45.4799746,49.9288708 50.2423076,49.7502839 C52.9627571,49.6482674 57.4091909,49.2297667 60.7910374,47.8887835 C64.0302322,46.6043652 66.2130542,44.3823257 68.5137545,44.8451166 C68.802167,44.9031314 68.8707536,45.3788665 68.8909502,45.6896702 C69.160383,49.835936 68.8909502,54.2821869 68.5137545,55.9712657 C67.7900263,59.2121134 60.9285721,57.6477611 54.1813771,57.4227718 C47.1972083,57.1898805 39.3486989,59.6159353 33.2631937,55.9712657 C32.90664,55.7577221 33.1474067,56.2603617 33.0860019,55.9712657 C32.9391223,55.2797512 33.0087076,53.6338381 33.0860019,52.6391215 C33.2509793,50.5159935 33.0860019,47.9080303 33.0860019,45.6896702 L33.0860019,44 Z" id="Path-9" fill="#DD7B7B"></path>
            <path d="M33,44 C41.4659894,48.1612717 47.8177144,50.1580206 52.0551749,49.9902468 C57.6999279,49.766754 63.3482029,47.7700051 69,44" id="Path-8" stroke="#20DCCB" stroke-width="3" stroke-linecap="round"></path>
            <ellipse id="Oval-11" fill="url(#linearGradient-2)" cx="51" cy="83" rx="51" ry="28"></ellipse>
            <path d="M36.0783484,57.0674523 C43.1447115,55.6891508 48.4686293,55 52.0501019,55 C55.6315744,55 61.3761056,55.6891508 69.2836955,57.0674523 L75,65.678295 C65.1466672,68.5594317 57.7070079,70 52.681022,70 C47.6550361,70 40.0946954,68.5594317 30,65.678295 L36.0783484,57.0674523 Z" id="Rectangle-8" fill="#686868"></path>
            <rect id="Rectangle-9" fill="#5476DE" x="0" y="80" width="102" height="6" rx="3"></rect>
            <path d="M55.8142145,55.9770181 C55.8142145,57.7374656 53.9822319,61.0050065 55.8142145,61.2583606 L56.5525018,61.9604339 C58.2847978,62.2000019 58.7987987,61.2740289 59.2284728,61.2583606 C60.5632424,61.2096876 58.3144561,60.714487 58.7712552,59.5388724 C58.9301413,59.1299642 58.8172037,59.2584618 60.2413696,58.705628 C61.3697975,58.267594 61.681678,61.793388 62.1734494,60.7328825 L64.0871081,61.1076087 C64.6855545,59.8170585 63.3559073,58.6217335 64.5370159,57.7685827 C65.5279425,57.0528061 65.7229643,58.6576181 66.8817292,59.0889686 C67.5117095,59.3234789 68.7389658,59.3366234 68.8708773,58.705628 C70.3920913,51.4289357 58.0114789,49.6509248 55.9342428,55.4759474 L55.8142145,55.9770181 Z" id="Path-13" fill="#F0F9FB"></path>
            <path d="M33.8142145,54.9770181 C33.8142145,56.7374656 31.9822319,60.0050065 33.8142145,60.2583606 L34.5525018,60.9604339 C36.2847978,61.2000019 36.7987987,60.2740289 37.2284728,60.2583606 C38.5632424,60.2096876 36.3144561,59.714487 36.7712552,58.5388724 C36.9301413,58.1299642 36.8172037,58.2584618 38.2413696,57.705628 C39.3697975,57.267594 39.681678,60.793388 40.1734494,59.7328825 L42.0871081,60.1076087 C42.6855545,58.8170585 41.3559073,57.6217335 42.5370159,56.7685827 C43.5279425,56.0528061 43.7229643,57.6576181 44.8817292,58.0889686 C45.5117095,58.3234789 46.7389658,58.3366234 46.8708773,57.705628 C48.3920913,50.4289357 36.0114789,48.6509248 33.9342428,54.4759474 L33.8142145,54.9770181 Z" id="Path-13" fill="#F0F9FB" transform="translate(40.000000, 56.000000) scale(-1, 1) translate(-40.000000, -56.000000) "></path>
            <rect id="Rectangle-10" fill="#5476DE" x="4" y="112" width="13" height="10" rx="5"></rect>
            <rect id="Rectangle-10" fill="#5476DE" x="83" y="112" width="13" height="10" rx="5"></rect>
            <path d="M-9.67802227e-15,85 C0.645187122,100.525656 23.2316482,113 51,113 C78.7683518,113 101.354813,100.525656 102,85 L-8.8817842e-15,85 Z" id="Combined-Shape" fill="url(#linearGradient-3)"></path>
            <polygon id="Triangle-3" fill="#6BBFB4" transform="translate(67.500000, 102.000000) rotate(-12.000000) translate(-67.500000, -102.000000) " points="67.5 93 74 111 61 111"></polygon>
            <path d="M50.6834241,95 L57,110.784033 C55.7810288,111.378294 54.7830271,111.731293 54.0059949,111.843029 C52.8404465,112.010632 46.8409321,112.090262 46.0813136,111.843029 C45.8227526,111.758875 45.1289814,111.758875 44,111.843029 L50.6834241,95 Z" id="Triangle-3" fill="#6BBFB4"></path>
            <path d="M81.5,86 L88,104.115917 C87.2428595,104.443306 86.6715915,104.643354 86.2861959,104.716063 C84.6123713,105.031849 83.1320251,104.973287 82.1245665,104.973287 C80.9663818,104.973287 78.1140515,105.124545 75.4671534,104.707202 C75.166667,104.659824 75.0109491,104.462729 75,104.115917 L81.5,86 Z" id="Triangle-3" fill="#6BBFB4" transform="translate(81.500000, 95.500000) rotate(-27.000000) translate(-81.500000, -95.500000) "></path>
            <polygon id="Triangle-3" fill="#6BBFB4" transform="translate(36.500000, 102.000000) scale(-1, 1) rotate(-12.000000) translate(-36.500000, -102.000000) " points="36.5 93 43 111 30 111"></polygon>
            <path d="M20.5,86 L27,104.115917 C26.2428595,104.443306 25.6715915,104.643354 25.2861959,104.716063 C23.6123713,105.031849 22.1320251,104.973287 21.1245665,104.973287 C19.9663818,104.973287 17.1140515,105.124545 14.4671534,104.707202 C14.166667,104.659824 14.0109491,104.462729 14,104.115917 L20.5,86 Z" id="Triangle-3" fill="#6BBFB4" transform="translate(20.500000, 95.500000) scale(-1, 1) rotate(-27.000000) translate(-20.500000, -95.500000) "></path>
        </g>
    </g>
</svg>