<?xml version="1.0" encoding="UTF-8" standalone="no"?>
<svg width="153px" height="182px" viewBox="0 0 153 182" version="1.1" xmlns="http://www.w3.org/2000/svg" xmlns:xlink="http://www.w3.org/1999/xlink">
    <!-- Generator: Sketch 46.2 (44496) - http://www.bohemiancoding.com/sketch -->
    <title>Slice 2</title>
    <desc>Created with Sketch.</desc>
    <defs>
        <linearGradient x1="50%" y1="0%" x2="50%" y2="100%" id="linearGradient-1">
            <stop stop-color="#F9C871" stop-opacity="0.569999993" offset="0%"></stop>
            <stop stop-color="#F0973D" stop-opacity="0.569999993" offset="100%"></stop>
        </linearGradient>
    </defs>
    <g id="Page-1" stroke="none" stroke-width="1" fill="none" fill-rule="evenodd">
        <g id="Cat" transform="translate(0.000000, -78.000000)">
            <path d="M31.8295238,115.448571 C35.9126648,94.6853337 54.5838738,79 77,79 C99.4161262,79 118.087335,94.6853337 122.170476,115.448571 C122.701474,116.51862 123,117.724448 123,119 L123,194 C123,198.418278 119.418278,202 115,202 L39,202 C34.581722,202 31,198.418278 31,194 L31,119 C31,117.724448 31.2985262,116.51862 31.8295238,115.448571 Z" id="Combined-Shape" fill="url(#linearGradient-1)"></path>
            <path d="M103.865708,134.532545 C103.9539,135.008257 104,135.498745 104,136 L104,185 C104,189.418278 100.418278,193 96,193 L59,193 C54.581722,193 51,189.418278 51,185 L51,136 L51,136 C51,135.498745 51.0461003,135.008257 51.1342922,134.532545 C51.0454836,133.699743 51,132.854882 51,132 C51,124.775651 51.6394901,116.465219 57.4435734,113.675904 C57.7303639,113.538079 54.5773427,114.499167 60.194175,112.303656 C65.8110073,110.108146 71.5244167,110.56667 78.1237661,110.56667 C83.2019053,110.56667 90.5268992,111.475722 94.2833978,112.910197 C94.6707131,113.058099 94.5717992,113.524673 94.8874961,113.675904 C101.774221,116.974911 104,123.477526 104,132 C104,132.854882 103.954516,133.699743 103.865708,134.532545 Z" id="Combined-Shape" fill="#F0F9FB"></path>
            <path d="M31.5,231.5 L17.5,247.5" id="Line-2" stroke="#5476DE" stroke-width="6" stroke-linecap="square"></path>
            <path d="M134.5,231.5 L120.5,247.5" id="Line-2" stroke="#5476DE" stroke-width="6" stroke-linecap="square" transform="translate(127.500000, 239.500000) scale(-1, 1) translate(-127.500000, -239.500000) "></path>
            <polygon id="Triangle" fill="#F0F9FB" transform="translate(101.074272, 112.024947) scale(-1, 1) rotate(-41.000000) translate(-101.074272, -112.024947) " points="101.074272 103.024947 110.574272 121.024947 91.5742723 121.024947"></polygon>
            <polygon id="Triangle" fill="#F0F9FB" transform="translate(53.074272, 112.024947) rotate(-41.000000) translate(-53.074272, -112.024947) " points="53.0742723 103.024947 62.5742723 121.024947 43.5742723 121.024947"></polygon>
            <polygon id="Rectangle-4" fill="#D0E433" points="97 124 97 133 82 133"></polygon>
            <polygon id="Rectangle-4" fill="#D0E433" transform="translate(66.500000, 128.500000) scale(-1, 1) translate(-66.500000, -128.500000) " points="74 124 74 133 69.6986058 133 59 133"></polygon>
            <ellipse id="Oval-13" fill="#7D7D7D" cx="92" cy="130" rx="2" ry="3"></ellipse>
            <ellipse id="Oval-13" fill="#7D7D7D" cx="64" cy="130" rx="2" ry="3"></ellipse>
            <path d="M51.1048279,145.423995 C53.8992042,146.471603 69.3787468,153.660717 76.4004249,153.412614 C80.4115095,153.270887 86.9674196,152.689482 91.9536813,150.826513 C96.7296142,149.042126 99.9480102,145.955144 103.340208,146.598079 C103.765449,146.678676 103.866575,147.339594 103.896353,147.77138 C104.29361,153.531606 103.896353,159.708589 103.340208,162.055152 C102.273129,166.55752 92.156465,164.384234 82.208267,164.071666 C71.9106702,163.748121 60.3386725,167.118533 51.366083,162.055152 C50.8403731,161.758485 51.1953643,162.456781 51.1048279,162.055152 C50.8882657,161.094461 50.9908636,158.807866 51.1048279,157.42595 C51.3480738,154.476381 51.1048279,150.853251 51.1048279,147.77138 L51.1048279,145.423995 Z" id="Path-9" fill="#DD7B7B"></path>
            <path d="M51.211688,145.142161 C63.644985,151.2103 72.9732371,154.122042 79.1964442,153.877387 C87.4864251,153.55148 95.7815785,150.639739 104.081904,145.142161" id="Path-8" stroke="#20DCCB" stroke-width="3" stroke-linecap="round"></path>
            <ellipse id="Oval-11" fill="#CE52B3" cx="77" cy="202" rx="76" ry="42"></ellipse>
            <path d="M54.0599183,163 C64.2491996,160.919144 71.9259769,159.878717 77.0902502,159.878717 C82.2545236,159.878717 90.5378007,160.919144 101.940082,163 L110.182658,176 C95.9747295,180.349722 85.247177,182.524584 78,182.524584 C70.752823,182.524584 59.8512551,180.349722 45.2952963,176 L54.0599183,163 Z" id="Rectangle-8" fill="#686868"></path>
            <rect id="Rectangle-9" fill="#5476DE" x="1" y="197" width="152" height="9" rx="4.5"></rect>
            <path d="M85.1336361,161.822846 C85.1336361,164.400359 82.5829549,169.184443 85.1336361,169.555385 L86.1615581,170.583307 C88.573445,170.934064 89.2890917,169.578325 89.8873298,169.555385 C91.745738,169.484121 88.6147385,168.759086 89.2507427,167.037841 C89.4719609,166.439149 89.3147172,166.627285 91.2975925,165.817868 C92.8687098,165.176533 93.3029431,170.338731 93.9876396,168.78602 L96.6520388,169.334665 C97.4852595,167.44514 95.6339832,165.695037 97.2784483,164.445918 C98.6581218,163.397933 98.9296518,165.747576 100.543008,166.379126 C101.420133,166.722479 103.12885,166.741724 103.312511,165.817868 C105.430507,155.163891 88.1929013,152.560664 85.3007522,161.089217 L85.1336361,161.822846 Z" id="Path-13" fill="#F0F9FB"></path>
            <path d="M52.1336361,160.822846 C52.1336361,163.400359 49.5829549,168.184443 52.1336361,168.555385 L53.1615581,169.583307 C55.573445,169.934064 56.2890917,168.578325 56.8873298,168.555385 C58.745738,168.484121 55.6147385,167.759086 56.2507427,166.037841 C56.4719609,165.439149 56.3147172,165.627285 58.2975925,164.817868 C59.8687098,164.176533 60.3029431,169.338731 60.9876396,167.78602 L63.6520388,168.334665 C64.4852595,166.44514 62.6339832,164.695037 64.2784483,163.445918 C65.6581218,162.397933 65.9296518,164.747576 67.5430076,165.379126 C68.4201333,165.722479 70.1288501,165.741724 70.3125113,164.817868 C72.4305073,154.163891 55.1929013,151.560664 52.3007522,160.089217 L52.1336361,160.822846 Z" id="Path-13" fill="#F0F9FB" transform="translate(60.746145, 162.320618) scale(-1, 1) translate(-60.746145, -162.320618) "></path>
            <rect id="Rectangle-10" fill="#5476DE" x="8" y="245" width="18" height="15" rx="7.5"></rect>
            <rect id="Rectangle-10" fill="#5476DE" x="124" y="245" width="18" height="15" rx="7.5"></rect>
            <ellipse id="Oval-12" fill="#E6E774" cx="19" cy="201.5" rx="5" ry="4.5"></ellipse>
            <ellipse id="Oval-12" fill="#E6E774" cx="41" cy="201.5" rx="5" ry="4.5"></ellipse>
            <ellipse id="Oval-12" fill="#E6E774" cx="63" cy="201.5" rx="5" ry="4.5"></ellipse>
            <ellipse id="Oval-12" fill="#E6E774" cx="41" cy="201.5" rx="5" ry="4.5"></ellipse>
            <ellipse id="Oval-12" fill="#E6E774" cx="85" cy="201.5" rx="5" ry="4.5"></ellipse>
            <ellipse id="Oval-12" fill="#E6E774" cx="110" cy="201.5" rx="5" ry="4.5"></ellipse>
            <ellipse id="Oval-12" fill="#E6E774" cx="132" cy="201.5" rx="5" ry="4.5"></ellipse>
            <ellipse id="Oval-12" fill="#E6E774" cx="148" cy="201.5" rx="5" ry="4.5"></ellipse>
            <ellipse id="Oval-12" fill="#E6E774" cx="5" cy="201.5" rx="5" ry="4.5"></ellipse>
        </g>
        <path d="M1,128 C1.96118814,150.733997 35.6100907,169 76.9788808,169 C118.347671,169 151.996573,150.733997 152.957762,128 L1,128 Z" id="Combined-Shape" fill="#7DE1D3"></path>
    </g>
</svg>