<?xml version="1.0" encoding="UTF-8" standalone="no"?>
<svg width="91px" height="146px" viewBox="0 0 91 146" version="1.1" xmlns="http://www.w3.org/2000/svg" xmlns:xlink="http://www.w3.org/1999/xlink">
    <!-- Generator: Sketch 46.2 (44496) - http://www.bohemiancoding.com/sketch -->
    <title>Dog</title>
    <desc>Created with Sketch.</desc>
    <defs>
        <linearGradient x1="50%" y1="0%" x2="50%" y2="100%" id="linearGradient-1">
            <stop stop-color="#24ECE0" offset="0%"></stop>
            <stop stop-color="#1ECFBC" offset="100%"></stop>
        </linearGradient>
        <linearGradient x1="50%" y1="0%" x2="50%" y2="100%" id="linearGradient-2">
            <stop stop-color="#E8C7E7" offset="0%"></stop>
            <stop stop-color="#8DD8EC" offset="100%"></stop>
        </linearGradient>
        <rect id="path-3" x="41" y="60" width="9" height="6" rx="3"></rect>
    </defs>
    <g id="Page-1" stroke="none" stroke-width="1" fill="none" fill-rule="evenodd">
        <g id="Dog" transform="translate(1.000000, 1.000000)">
            <ellipse id="Oval-9" fill="#F0F9FB" transform="translate(15.590029, 105.570461) scale(-1, 1) rotate(62.000000) translate(-15.590029, -105.570461) " cx="15.5900291" cy="105.570461" rx="8.73922556" ry="3.94951098"></ellipse>
            <ellipse id="Oval-9" fill="#F0F9FB" transform="translate(73.590029, 104.570461) rotate(62.000000) translate(-73.590029, -104.570461) " cx="73.5900291" cy="104.570461" rx="8.73922556" ry="3.94951098"></ellipse>
            <ellipse id="Oval-8" fill="url(#linearGradient-1)" cx="45" cy="110" rx="27" ry="31"></ellipse>
            <path d="M19.5930233,102.5 L69.4069767,102.5" id="Line-3" stroke="#1FC5B3" stroke-linecap="square"></path>
            <ellipse id="Oval-4" stroke="#FFFFFF" fill="url(#linearGradient-2)" cx="44.5" cy="42" rx="44.5" ry="42"></ellipse>
            <ellipse id="Oval-6" fill="#F0F9FB" cx="44.5" cy="53" rx="26.5" ry="25"></ellipse>
            <ellipse id="Oval-6" fill="#CBCBCB" cx="33.5" cy="53" rx="6.5" ry="6"></ellipse>
            <path d="M62.4728555,34.0008123 C74.0568638,34.7887561 83.302274,34.6281323 80.7012222,48.4581795 C80.5872158,49.0643623 79.3273562,48.7077231 78.7252733,48.4581795 L73.9944509,42.8065335 C71.9696066,41.9673021 69.4010866,44.7229862 67.4308643,43.7770182 C63.9170769,42.0899341 61.7634463,38.6087684 59.276973,35.740192 C58.9693569,35.3853037 58.8507276,34.5935417 59.276973,34.370096 C60.8552308,33.5427443 62.7617704,33.4566987 64.5041691,33" id="Path-10" fill="#F0F9FB"></path>
            <path d="M23.0549329,36.9669063 C15.977819,29.219643 32.0805122,47.8135217 22.0564583,24.9892701 C20.1912589,20.7423079 11.2880578,31.5397128 11.2546046,31.6131848 C7.05478876,40.8371075 14.0224911,48.8735226 22.9117482,35.3434852" id="Path-11" fill="#F0F9FB"></path>
            <g id="Ögon" transform="translate(30.000000, 50.000000)">
                <ellipse id="Oval-7" fill="#5C5757" cx="26.5833333" cy="2.5" rx="2.41666667" ry="2.5"></ellipse>
                <ellipse id="Oval-7" fill="#5C5757" cx="2.41666667" cy="2.5" rx="2.41666667" ry="2.5"></ellipse>
                <ellipse id="Oval-7" fill="#F0E5E5" cx="2.41666667" cy="1.25" rx="1.20833333" ry="1.25"></ellipse>
                <ellipse id="Oval-7" fill="#F0E5E5" cx="26.5833333" cy="1.25" rx="1.20833333" ry="1.25"></ellipse>
            </g>
            <rect id="Rectangle-2" fill="#F0F9FB" x="36" y="60" width="18" height="25" rx="8"></rect>
            <rect id="Rectangle-3" fill="#C3BFBF" x="27" y="81" width="38" height="6" rx="3"></rect>
            <g id="Rectangle-3">
                <use fill="#8C8989" fill-rule="evenodd" xlink:href="#path-3"></use>
                <rect stroke="#A7A3A3" stroke-width="1" x="41.5" y="60.5" width="8" height="5" rx="2.5"></rect>
            </g>
            <rect id="Rectangle-3" fill="#8C8989" x="45" y="61" width="3" height="2" rx="1"></rect>
            <ellipse id="Oval-9" fill="#68B4BA" cx="30.0118982" cy="134.625697" rx="9.01189821" ry="9.62569718"></ellipse>
            <ellipse id="Oval-9" fill="#68B4BA" cx="59.9459269" cy="134.433354" rx="8.94592692" ry="9.4333537"></ellipse>
            <path d="M24.6,90.5 L65.4,90.5" id="Line-3" stroke="#1FC5B3" stroke-linecap="square"></path>
            <polyline id="Path-12" stroke="#979797" points="41 68 41.7223165 68 43.3358385 68 44.0697077 68 44.656693 68 45.8790748 68 46.0259586 68 46.3191762 68 46.4170988 68 46.5150214 68 46.6558538 68 46.8027377 68 47.0959553 68 47.389723 68 47.5360568 68"></polyline>
            <path d="M69,94.6489073 C69.4701932,81.0596929 67.5697951,96.7205516 72.5363466,92.0696526 C73.6190463,91.0557646 70.8409966,88.7921358 71.9539602,87.8072773 C72.8642976,87.0017221 73.974783,90.6801879 74.9450358,89.9382099 C76.1346791,89.0284584 73.6470293,86.5811979 74.7998486,85.6309515 C75.75327,84.8450648 77.3498959,88.1543621 78.1904621,87.2630684 C79.3873079,85.9939939 76.6970428,83.3195826 78.0447291,82.1902451 C79.0963108,81.309038 80.3378871,83.7319155 81.4844661,84.5027507" id="Path-14" stroke="#FFFFFF"></path>
            <path d="M81.1359558,84.4367655 C79.7736988,68.5605695 79.8954447,87.0930072 84.1870713,81.1317288 C85.0445105,79.9407041 82.3272192,78.3736123 82.8285335,77.0167541 C83.1382351,76.1785153 85.6461896,77.9939531 85.6738761,77.1075406 C85.7122133,75.8801335 83.5900052,75.532311 82.9076769,74.4828927 L85.4309877,72.9629838 C84.7416312,71.9027562 82.3118997,73.3142511 81.5065654,72.3279883 C80.9328146,71.6253372 83.7035304,70.8758622 83.1445614,70.1628833 C81.3489729,67.8725656 78.3319044,73.0568221 81.1550594,69" id="Path-15" stroke="#FFFFFF"></path>
        </g>
    </g>
</svg>